<?xml version="1.0" encoding="utf-8"?>
<!-- Generator: Adobe Illustrator 24.3.0, SVG Export Plug-In . SVG Version: 6.00 Build 0)  -->
<svg version="1.1" id="Camada_1" xmlns="http://www.w3.org/2000/svg" xmlns:xlink="http://www.w3.org/1999/xlink" x="0px" y="0px"
	 viewBox="0 0 400 300" style="enable-background:new 0 0 400 300;" xml:space="preserve">
<style type="text/css">
	.st0{fill:#C3CFA7;}
	.st1{fill:#5A5A10;}
	.st2{fill:#D1D3D4;}
	.st3{fill:#FFFFFF;}
	.st4{fill:#E6E7E8;}
	.st5{fill:#231F20;}
</style>
<g>
	<path class="st0" d="M166.8,150.8c-1.9-1.9-3.5-3.4-5.1-4.9c-7.4-7.4-18.3-9.6-27.5-5.5c-9.5,4.3-15.1,13.5-14.4,24.2
		c0.2,2.5-0.6,3.2-2.9,3.8c-15.8,3.9-27.3,18.2-28,34.1c-0.8,21.9,15.7,39.1,37.6,39.1c50.4,0,100.9,0,151.4,0
		c1.9,0,3.9-0.1,5.8-0.4c16-2.2,28.2-16.2,28.4-32.5c0.2-16.7-11.7-31.1-27.8-33.5c-3.7-0.6-7.5-0.5-11.3-0.7
		c6.4-33.5-15.8-58-38.2-64c-12.2-3.3-24.2-2.8-35.8,2.2C182.1,119.9,171.9,133.1,166.8,150.8z"/>
	<path class="st1" d="M186,242h-59.4c-20.6,0.4-37.6-16.1-38-36.7c0-0.9,0-1.9,0.1-2.8c0.8-16.5,12.2-30.5,28.2-34.5
		c2.1-0.5,2.8-1.1,2.6-3.4c-0.7-10.8,4.8-20.2,14.6-24.6c9.3-4.2,20.3-2,27.9,5.6c1,1,2.1,2,3.3,3.2l1.4,1.3
		c5.4-18.2,16.2-30.9,32.3-37.8c11.3-4.9,23.4-5.6,36.1-2.2c11.8,3.2,22.8,11.1,30.1,21.8c5.8,8.5,12,22.8,8.4,42.2
		c1,0.1,2.1,0.1,3.1,0.2c2.6,0.1,5.2,0.3,7.7,0.6c16.2,2.4,28.3,17,28.1,33.9c-0.2,16.5-12.6,30.7-28.7,32.9
		c-1.9,0.3-3.9,0.4-5.8,0.4C248.3,242,217.3,242,186,242z M144,138.7c-3.3,0-6.5,0.7-9.5,2c-9.5,4.2-14.9,13.4-14.2,23.8
		c0.2,2.8-0.9,3.6-3.2,4.2c-15.7,3.9-26.9,17.6-27.7,33.8c-1.1,20.2,14.3,37.5,34.5,38.6c0.9,0.1,1.8,0.1,2.7,0.1
		c50.9,0,102.8,0,151.4,0c1.9,0,3.8-0.1,5.7-0.4c15.8-2.2,27.9-16,28.1-32.2c0.2-16.5-11.7-30.8-27.5-33.1c-2.5-0.3-5.1-0.5-7.7-0.6
		c-1.2,0-2.4-0.1-3.6-0.2c-0.1,0-0.2-0.1-0.3-0.1c-0.1-0.1-0.1-0.2-0.1-0.3c3.7-19.4-2.4-33.5-8.2-42c-7.2-10.6-18-18.4-29.7-21.5
		c-12.5-3.3-24.5-2.6-35.6,2.2c-16.2,7-26.7,19.4-32,37.9c0,0.1-0.1,0.2-0.3,0.3c-0.1,0-0.3,0-0.4-0.1l-1.8-1.7
		c-1.2-1.1-2.2-2.1-3.3-3.2C156.8,141.5,150.5,138.8,144,138.7L144,138.7z"/>
</g>
<rect x="148.6" y="168" class="st2" width="102.8" height="55.8"/>
<path class="st1" d="M251.4,224.4H148.6c-0.3,0-0.5-0.2-0.5-0.5V168c0-0.3,0.2-0.5,0.5-0.5h102.8c0.3,0,0.5,0.2,0.5,0.5v55.8
	C251.9,224.1,251.7,224.3,251.4,224.4C251.4,224.3,251.4,224.4,251.4,224.4z M149.1,223.4h101.8v-54.8H149.1L149.1,223.4z"/>
<rect x="148.6" y="139.8" class="st1" width="102.8" height="27.9"/>
<path class="st1" d="M251.4,168.2H148.6c-0.3,0-0.5-0.2-0.5-0.5v-27.9c0-0.3,0.2-0.5,0.5-0.5h102.8c0.3,0,0.5,0.2,0.5,0.5v27.9
	C251.9,168,251.7,168.2,251.4,168.2z M149.1,167.2h101.8v-26.9H149.1L149.1,167.2z"/>
<rect x="162.9" y="145.9" class="st3" width="83" height="39.9"/>
<path class="st1" d="M245.9,186.3h-83c-0.3,0-0.5-0.2-0.5-0.5v-39.9c0-0.3,0.2-0.5,0.5-0.5h83c0.3,0,0.5,0.2,0.5,0.5v39.9
	C246.4,186.1,246.2,186.3,245.9,186.3L245.9,186.3z M163.4,185.3h82v-38.9h-82V185.3z"/>
<polygon class="st0" points="242.2,155.2 242.2,148.4 208.7,148.4 204.2,155.2 158.1,155.2 158.1,194.9 247.7,194.9 247.7,155.2 "/>
<path class="st1" d="M247.7,195.4h-89.6c-0.3,0-0.5-0.2-0.5-0.5v-39.7c0-0.3,0.2-0.5,0.5-0.5H204l4.3-6.6c0.1-0.1,0.2-0.2,0.4-0.2
	h33.6c0.3,0,0.5,0.2,0.5,0.5v6.3h5c0.3,0,0.5,0.2,0.5,0.5v39.7C248.3,195.1,248.1,195.4,247.7,195.4
	C247.8,195.4,247.8,195.4,247.7,195.4z M158.6,194.4h88.6v-38.7h-5c-0.3,0-0.5-0.2-0.5-0.5v-6.3h-32.8l-4.3,6.6
	c-0.1,0.1-0.2,0.2-0.4,0.2h-45.6V194.4z"/>
<rect x="154.2" y="159.3" class="st3" width="88.5" height="39.9"/>
<path class="st1" d="M242.7,199.7h-88.5c-0.3,0-0.5-0.2-0.5-0.5v-39.9c0-0.3,0.2-0.5,0.5-0.5h88.5c0.3,0,0.5,0.2,0.5,0.5v39.9
	C243.2,199.5,243,199.7,242.7,199.7z M154.7,198.7h87.5v-38.9h-87.5L154.7,198.7z"/>
<polygon class="st0" points="158.1,168.6 158.1,161.8 193.9,161.8 198.6,168.6 247.7,168.6 247.7,208.2 152.3,208.2 152.3,168.6 "/>
<path class="st1" d="M247.7,208.8h-95.5c-0.3,0-0.5-0.2-0.5-0.5v-39.6c0-0.3,0.2-0.5,0.5-0.5h5.4v-6.3c0-0.3,0.2-0.5,0.5-0.5h35.8
	c0.2,0,0.3,0.1,0.4,0.2l4.6,6.6h48.8c0.3,0,0.5,0.2,0.5,0.5v39.7C248.2,208.5,248,208.7,247.7,208.8z M152.7,207.8h94.5v-38.6h-48.6
	c-0.2,0-0.3-0.1-0.4-0.2l-4.6-6.6h-35v6.3c0,0.3-0.2,0.5-0.5,0.5h-5.4L152.7,207.8z"/>
<rect x="158.7" y="171.6" class="st3" width="88.5" height="39.9"/>
<path class="st1" d="M247.2,212.1h-88.5c-0.3,0-0.5-0.2-0.5-0.5v-39.9c0-0.3,0.2-0.5,0.5-0.5h88.5c0.3,0,0.5,0.2,0.5,0.5v39.9
	C247.7,211.8,247.4,212.1,247.2,212.1z M159.2,211.1h87.5v-38.9h-87.4L159.2,211.1z"/>
<rect x="157.3" y="174.9" class="st3" width="88.5" height="39.9"/>
<path class="st1" d="M245.8,215.3h-88.5c-0.3,0-0.5-0.2-0.5-0.5v-39.9c0-0.3,0.2-0.5,0.5-0.5h88.5c0.3,0,0.5,0.2,0.5,0.5v39.9
	C246.3,215.1,246,215.3,245.8,215.3L245.8,215.3z M157.8,214.3h87.5v-38.9h-87.4L157.8,214.3z"/>
<polygon class="st0" points="241.9,184.2 241.9,177.4 206.1,177.4 201.4,184.2 152.3,184.2 152.3,223.9 247.7,223.9 247.7,184.2 "/>
<path class="st1" d="M247.7,224.4h-95.5c-0.3,0-0.5-0.2-0.5-0.5v-39.7c0-0.3,0.2-0.5,0.5-0.5h48.8l4.6-6.6c0.1-0.1,0.2-0.2,0.4-0.2
	h35.8c0.3,0,0.5,0.2,0.5,0.5v6.3h5.4c0.3,0,0.5,0.2,0.5,0.5v39.6C248.2,224.1,248,224.3,247.7,224.4L247.7,224.4z M152.7,223.4h94.5
	v-38.7h-5.4c-0.3,0-0.5-0.2-0.5-0.5v-6.3h-35l-4.6,6.6c-0.1,0.1-0.2,0.2-0.4,0.2h-48.6L152.7,223.4z"/>
<rect x="144" y="202.2" class="st3" width="112" height="52.6"/>
<path class="st1" d="M256,255.3H144c-0.3,0-0.5-0.2-0.5-0.5v-52.6c0-0.3,0.2-0.5,0.5-0.5h112c0.3,0,0.5,0.2,0.5,0.5v52.6
	C256.5,255.1,256.3,255.3,256,255.3z M144.5,254.3h111v-51.6h-111V254.3z"/>
<path class="st4" d="M251.5,250.6h-103c-0.3,0-0.5-0.2-0.5-0.5V207c0-0.3,0.2-0.5,0.5-0.5h103c0.3,0,0.5,0.2,0.5,0.5v43.2
	C252,250.4,251.7,250.6,251.5,250.6z M149,249.6h102v-42.2H149L149,249.6z"/>
<path class="st1" d="M214.9,235.4h-29.8c-3.7,0-6.5-2-6.5-4.6v-3.2h4v3.1c0.7,0.6,1.6,0.8,2.5,0.8h29.8c0.9,0.1,1.8-0.2,2.5-0.8
	v-3.1h4v3.2C221.4,233.4,218.6,235.4,214.9,235.4z"/>
<path class="st5" d="M198.5,198.6c0,0,1.7-0.3,4.5,3.6h-15.1C187.8,202.2,193.2,200.4,198.5,198.6z"/>
<path class="st5" d="M202.9,202.8h-15.1c-0.2,0-0.5-0.2-0.5-0.4c0-0.2,0.1-0.5,0.3-0.6c0.1,0,5.4-1.9,10.7-3.6h0.1
	c0.2,0,2.1-0.2,5,3.8c0.1,0.2,0.1,0.4,0,0.5C203.3,202.7,203.1,202.8,202.9,202.8z M190.8,201.8h11.2c-1.9-2.4-3.2-2.6-3.4-2.6
	C195.7,200.1,192.8,201.1,190.8,201.8z"/>
<path class="st3" d="M198.5,198.6h-41.2c0,0-10.3,3.6-8.7,21.6h46C194.6,220.2,190.9,205.5,198.5,198.6z"/>
<path class="st1" d="M194.6,220.8h-46c-0.3,0-0.5-0.2-0.5-0.5c-1.6-18.2,8.6-22,9-22.1c0.1,0,0.1,0,0.2,0h41.2
	c0.3,0,0.5,0.2,0.5,0.5c0,0.1-0.1,0.3-0.2,0.4c-7.2,6.6-3.8,21-3.8,21.1c0,0.1,0,0.3-0.1,0.4C194.8,220.7,194.7,220.7,194.6,220.8z
	 M149.1,219.8h44.9c-0.6-2.8-2.5-14.2,3.3-20.6h-39.9C156.5,199.5,147.8,203.6,149.1,219.8z"/>
<path class="st4" d="M183.8,215.3h-29.2c-0.3,0-0.5-0.2-0.5-0.5c0-0.3,0.2-0.5,0.5-0.5h29.2c0.3,0,0.5,0.2,0.5,0.5
	S184.1,215.3,183.8,215.3z"/>
<path class="st4" d="M187.8,210h-33.2c-0.3,0-0.5-0.2-0.5-0.5c0-0.3,0.2-0.5,0.5-0.5h33.2c0.3,0,0.5,0.2,0.5,0.5
	C188.3,209.8,188.1,210,187.8,210z"/>
<path class="st4" d="M190.1,204.2h-33.2c-0.3,0-0.5-0.2-0.5-0.5s0.2-0.5,0.5-0.5h33.2c0.3,0,0.5,0.2,0.5,0.5
	S190.3,204.2,190.1,204.2z"/>
<path class="st4" d="M239.1,163.6h-21.6c-0.3,0-0.5-0.2-0.5-0.5s0.2-0.5,0.5-0.5h21.6c0.3,0,0.5,0.2,0.5,0.5
	C239.6,163.3,239.4,163.6,239.1,163.6z"/>
<path class="st4" d="M190.9,150.7h-21.6c-0.3,0-0.5-0.2-0.5-0.5s0.2-0.5,0.5-0.5h21.6c0.3,0,0.5,0.2,0.5,0.5
	S191.1,150.7,190.9,150.7z"/>
</svg>
